<?xml version="1.0" encoding="UTF-8" standalone="no"?>
<!DOCTYPE svg PUBLIC "-//W3C//DTD SVG 1.1//EN"
 "http://www.w3.org/Graphics/SVG/1.1/DTD/svg11.dtd">
<!-- Generated by graphviz version 12.2.0 (0)
 -->
<!-- Title: Genome Pages: 1 -->
<svg width="606pt" height="448pt"
 viewBox="0.00 0.00 605.60 447.71" xmlns="http://www.w3.org/2000/svg" xmlns:xlink="http://www.w3.org/1999/xlink">
<g id="graph0" class="graph" transform="scale(1 1) rotate(0) translate(4 443.71)">
<title>Genome</title>
<polygon fill="white" stroke="none" points="-4,4 -4,-443.71 601.6,-443.71 601.6,4 -4,4"/>
<!-- 0 -->
<g id="node1" class="node">
<title>0</title>
<ellipse fill="none" stroke="black" cx="99.32" cy="-18" rx="31.15" ry="18"/>
<text text-anchor="middle" x="99.32" y="-13.8" font-family="Times,serif" font-size="14.00">ID: 0</text>
</g>
<!-- 3 -->
<g id="node4" class="node">
<title>3</title>
<ellipse fill="none" stroke="black" cx="248.32" cy="-404.56" rx="31.15" ry="31.15"/>
<ellipse fill="none" stroke="black" cx="248.32" cy="-404.56" rx="35.15" ry="35.15"/>
<text text-anchor="middle" x="248.32" y="-400.36" font-family="Times,serif" font-size="14.00">ID: 3</text>
</g>
<!-- 0&#45;&gt;3 -->
<g id="edge1" class="edge">
<title>0&#45;&gt;3</title>
<path fill="none" stroke="black" d="M83.57,-33.75C50.61,-66.48 -20.43,-147.93 6.23,-219.5 33.28,-292.14 57.34,-306.23 120.32,-351.41 145.49,-369.46 177.81,-382.57 203.68,-391.12"/>
<polygon fill="black" stroke="black" points="202.3,-394.36 212.89,-394.06 204.42,-387.69 202.3,-394.36"/>
<text text-anchor="middle" x="56.78" y="-206.9" font-family="Times,serif" font-size="14.00">Weight: 1.000000</text>
<text text-anchor="middle" x="56.78" y="-190.1" font-family="Times,serif" font-size="14.00">Innovation: 1</text>
</g>
<!-- 4 -->
<g id="node5" class="node">
<title>4</title>
<ellipse fill="none" stroke="black" cx="249.32" cy="-136.75" rx="31.15" ry="31.15"/>
<text text-anchor="middle" x="249.32" y="-132.55" font-family="Times,serif" font-size="14.00">ID: 4</text>
</g>
<!-- 0&#45;&gt;4 -->
<g id="edge6" class="edge">
<title>0&#45;&gt;4</title>
<path fill="none" stroke="black" d="M106.24,-35.85C113.49,-51.46 126.32,-74.23 144.23,-87.6 166.57,-104.28 179.11,-93.71 204.32,-105.6 208.03,-107.35 211.78,-109.37 215.44,-111.53"/>
<polygon fill="black" stroke="black" points="213.27,-114.3 223.6,-116.65 216.99,-108.37 213.27,-114.3"/>
<text text-anchor="middle" x="194.78" y="-75" font-family="Times,serif" font-size="14.00">Weight: 1.000000</text>
<text text-anchor="middle" x="194.78" y="-58.2" font-family="Times,serif" font-size="14.00">Innovation: 8</text>
</g>
<!-- 5 -->
<g id="node6" class="node">
<title>5</title>
<ellipse fill="none" stroke="black" cx="132.32" cy="-268.66" rx="31.15" ry="31.15"/>
<text text-anchor="middle" x="132.32" y="-264.46" font-family="Times,serif" font-size="14.00">ID: 5</text>
</g>
<!-- 0&#45;&gt;5 -->
<g id="edge10" class="edge">
<title>0&#45;&gt;5</title>
<path fill="none" stroke="black" d="M99.5,-36.05C99.98,-63.81 101.74,-120.43 108.23,-167.9 111.4,-191.15 113.8,-196.71 119.32,-219.5 119.92,-221.97 120.55,-224.49 121.2,-227.04"/>
<polygon fill="black" stroke="black" points="117.81,-227.92 123.72,-236.71 124.58,-226.15 117.81,-227.92"/>
<text text-anchor="middle" x="158.78" y="-140.95" font-family="Times,serif" font-size="14.00">Weight: 1.000000</text>
<text text-anchor="middle" x="158.78" y="-124.15" font-family="Times,serif" font-size="14.00">Innovation: 10</text>
</g>
<!-- 1 -->
<g id="node2" class="node">
<title>1</title>
<ellipse fill="none" stroke="black" cx="336.32" cy="-18" rx="31.15" ry="18"/>
<text text-anchor="middle" x="336.32" y="-13.8" font-family="Times,serif" font-size="14.00">ID: 1</text>
</g>
<!-- 1&#45;&gt;3 -->
<g id="edge2" class="edge">
<title>1&#45;&gt;3</title>
<path fill="none" stroke="black" stroke-dasharray="5,2" d="M351.42,-34.06C356.19,-39.81 360.85,-46.74 363.32,-54 368.14,-68.13 363.64,-72.67 363.32,-87.6 361.32,-181.98 392.75,-213.58 354.32,-299.81 340.01,-331.93 310.81,-359.3 286.67,-377.85"/>
<polygon fill="black" stroke="black" points="284.85,-374.84 278.92,-383.62 289.03,-380.46 284.85,-374.84"/>
<text text-anchor="middle" x="424.09" y="-206.9" font-family="Times,serif" font-size="14.00">Weight: 1.000000</text>
<text text-anchor="middle" x="424.09" y="-190.1" font-family="Times,serif" font-size="14.00">Innovation: 2</text>
</g>
<!-- 1&#45;&gt;4 -->
<g id="edge4" class="edge">
<title>1&#45;&gt;4</title>
<path fill="none" stroke="black" d="M307.46,-25.57C291.67,-30.68 273.15,-39.43 262.23,-54 253.68,-65.41 249.82,-80.25 248.3,-94.16"/>
<polygon fill="black" stroke="black" points="244.81,-93.8 247.62,-104.01 251.8,-94.28 244.81,-93.8"/>
<text text-anchor="middle" x="312.78" y="-75" font-family="Times,serif" font-size="14.00">Weight: 1.000000</text>
<text text-anchor="middle" x="312.78" y="-58.2" font-family="Times,serif" font-size="14.00">Innovation: 4</text>
</g>
<!-- 2 -->
<g id="node3" class="node">
<title>2</title>
<ellipse fill="none" stroke="black" cx="450.32" cy="-18" rx="31.15" ry="18"/>
<text text-anchor="middle" x="450.32" y="-13.8" font-family="Times,serif" font-size="14.00">ID: 2</text>
</g>
<!-- 2&#45;&gt;3 -->
<g id="edge3" class="edge">
<title>2&#45;&gt;3</title>
<path fill="none" stroke="black" d="M477.57,-27.16C490.52,-32.56 504.78,-41.08 512.32,-54 535.35,-93.44 522.6,-142.66 478.32,-219.5 436.6,-291.91 411.47,-301.66 344.32,-351.41 327.63,-363.77 307.66,-375.1 290.26,-384.02"/>
<polygon fill="black" stroke="black" points="289.08,-380.69 281.71,-388.3 292.22,-386.95 289.08,-380.69"/>
<text text-anchor="middle" x="547.05" y="-206.9" font-family="Times,serif" font-size="14.00">Weight: 1.000000</text>
<text text-anchor="middle" x="547.05" y="-190.1" font-family="Times,serif" font-size="14.00">Innovation: 3</text>
</g>
<!-- 2&#45;&gt;4 -->
<g id="edge9" class="edge">
<title>2&#45;&gt;4</title>
<path fill="none" stroke="black" d="M433.84,-33.64C413.85,-51.22 381.12,-79.35 367.32,-87.6 342.9,-102.21 313.23,-114.29 289.75,-122.7"/>
<polygon fill="black" stroke="black" points="288.82,-119.32 280.54,-125.92 291.13,-125.93 288.82,-119.32"/>
<text text-anchor="middle" x="460.44" y="-75" font-family="Times,serif" font-size="14.00">Weight: 1.000000</text>
<text text-anchor="middle" x="460.44" y="-58.2" font-family="Times,serif" font-size="14.00">Innovation: 9</text>
</g>
<!-- 4&#45;&gt;3 -->
<g id="edge5" class="edge">
<title>4&#45;&gt;3</title>
<path fill="none" stroke="black" d="M249.21,-168.24C249.03,-214.74 248.7,-303.68 248.5,-357.9"/>
<polygon fill="black" stroke="black" points="245,-357.72 248.46,-367.73 252,-357.74 245,-357.72"/>
<text text-anchor="middle" x="299.49" y="-272.86" font-family="Times,serif" font-size="14.00">Weight: 1.000000</text>
<text text-anchor="middle" x="299.49" y="-256.06" font-family="Times,serif" font-size="14.00">Innovation: 5</text>
</g>
<!-- 4&#45;&gt;5 -->
<g id="edge7" class="edge">
<title>4&#45;&gt;5</title>
<path fill="none" stroke="black" d="M224.98,-156.26C218.52,-160.54 211.37,-164.77 204.32,-167.9 174.55,-181.17 153.39,-160.29 133.23,-185.9 124.22,-197.34 122.29,-212.74 123.2,-227.09"/>
<polygon fill="black" stroke="black" points="119.7,-227.23 124.3,-236.77 126.65,-226.44 119.7,-227.23"/>
<text text-anchor="middle" x="183.78" y="-206.9" font-family="Times,serif" font-size="14.00">Weight: 1.000000</text>
<text text-anchor="middle" x="183.78" y="-190.1" font-family="Times,serif" font-size="14.00">Innovation: 6</text>
</g>
<!-- 5&#45;&gt;3 -->
<g id="edge8" class="edge">
<title>5&#45;&gt;3</title>
<path fill="none" stroke="black" d="M125.28,-299.51C123.08,-316.07 123.38,-336.31 133.23,-351.41 148.56,-374.91 177.31,-387.94 202.23,-395.11"/>
<polygon fill="black" stroke="black" points="201.33,-398.49 211.89,-397.62 203.09,-391.71 201.33,-398.49"/>
<text text-anchor="middle" x="183.78" y="-338.81" font-family="Times,serif" font-size="14.00">Weight: 1.000000</text>
<text text-anchor="middle" x="183.78" y="-322.01" font-family="Times,serif" font-size="14.00">Innovation: 7</text>
</g>
</g>
</svg>
