<?xml version="1.0" encoding="UTF-8" standalone="no"?>
<!DOCTYPE svg PUBLIC "-//W3C//DTD SVG 1.1//EN"
 "http://www.w3.org/Graphics/SVG/1.1/DTD/svg11.dtd">
<!-- Generated by graphviz version 12.2.0 (0)
 -->
<!-- Title: Genome Pages: 1 -->
<svg width="641pt" height="448pt"
 viewBox="0.00 0.00 640.65 447.71" xmlns="http://www.w3.org/2000/svg" xmlns:xlink="http://www.w3.org/1999/xlink">
<g id="graph0" class="graph" transform="scale(1 1) rotate(0) translate(4 443.71)">
<title>Genome</title>
<polygon fill="white" stroke="none" points="-4,4 -4,-443.71 636.65,-443.71 636.65,4 -4,4"/>
<!-- 0 -->
<g id="node1" class="node">
<title>0</title>
<ellipse fill="none" stroke="black" cx="128.47" cy="-136.75" rx="31.15" ry="18"/>
<text text-anchor="middle" x="128.47" y="-132.55" font-family="Times,serif" font-size="14.00">ID: 0</text>
</g>
<!-- 3 -->
<g id="node4" class="node">
<title>3</title>
<ellipse fill="none" stroke="black" cx="265.47" cy="-404.56" rx="31.15" ry="31.15"/>
<ellipse fill="none" stroke="black" cx="265.47" cy="-404.56" rx="35.15" ry="35.15"/>
<text text-anchor="middle" x="265.47" y="-400.36" font-family="Times,serif" font-size="14.00">ID: 3</text>
</g>
<!-- 0&#45;&gt;3 -->
<g id="edge1" class="edge">
<title>0&#45;&gt;3</title>
<path fill="none" stroke="black" d="M123.12,-154.51C114.33,-185.24 100.11,-251.84 124.37,-299.81 144.84,-340.25 189.31,-368.78 222.9,-385.55"/>
<polygon fill="black" stroke="black" points="221.04,-388.54 231.57,-389.72 224.07,-382.23 221.04,-388.54"/>
<text text-anchor="middle" x="174.92" y="-272.86" font-family="Times,serif" font-size="14.00">Weight: 1.000000</text>
<text text-anchor="middle" x="174.92" y="-256.06" font-family="Times,serif" font-size="14.00">Innovation: 1</text>
</g>
<!-- 5 -->
<g id="node6" class="node">
<title>5</title>
<ellipse fill="none" stroke="black" cx="265.47" cy="-268.66" rx="31.15" ry="31.15"/>
<text text-anchor="middle" x="265.47" y="-264.46" font-family="Times,serif" font-size="14.00">ID: 5</text>
</g>
<!-- 0&#45;&gt;5 -->
<g id="edge9" class="edge">
<title>0&#45;&gt;5</title>
<path fill="none" stroke="black" d="M130.27,-154.88C133.1,-173.33 140.3,-202.32 158.37,-219.5 177.96,-238.13 191.85,-226.33 216.47,-237.5 221.04,-239.58 225.71,-242 230.26,-244.56"/>
<polygon fill="black" stroke="black" points="228.25,-247.44 238.64,-249.51 231.81,-241.41 228.25,-247.44"/>
<text text-anchor="middle" x="208.92" y="-206.9" font-family="Times,serif" font-size="14.00">Weight: 1.000000</text>
<text text-anchor="middle" x="208.92" y="-190.1" font-family="Times,serif" font-size="14.00">Innovation: 10</text>
</g>
<!-- 1 -->
<g id="node2" class="node">
<title>1</title>
<ellipse fill="none" stroke="black" cx="125.47" cy="-18" rx="31.15" ry="18"/>
<text text-anchor="middle" x="125.47" y="-13.8" font-family="Times,serif" font-size="14.00">ID: 1</text>
</g>
<!-- 1&#45;&gt;3 -->
<g id="edge2" class="edge">
<title>1&#45;&gt;3</title>
<path fill="none" stroke="black" stroke-dasharray="5,2" d="M106.54,-32.8C65.88,-64.25 -23.77,-144.35 6.37,-219.5 36.56,-294.78 65.11,-306.23 132.47,-351.41 159.44,-369.5 193.62,-382.73 220.58,-391.34"/>
<polygon fill="black" stroke="black" points="219.24,-394.59 229.83,-394.19 221.3,-387.9 219.24,-394.59"/>
<text text-anchor="middle" x="56.92" y="-206.9" font-family="Times,serif" font-size="14.00">Weight: 1.000000</text>
<text text-anchor="middle" x="56.92" y="-190.1" font-family="Times,serif" font-size="14.00">Innovation: 2</text>
</g>
<!-- 4 -->
<g id="node5" class="node">
<title>4</title>
<ellipse fill="none" stroke="black" cx="299.47" cy="-136.75" rx="31.15" ry="31.15"/>
<text text-anchor="middle" x="299.47" y="-132.55" font-family="Times,serif" font-size="14.00">ID: 4</text>
</g>
<!-- 1&#45;&gt;4 -->
<g id="edge4" class="edge">
<title>1&#45;&gt;4</title>
<path fill="none" stroke="black" d="M145.09,-32.17C174.05,-51.6 228.69,-88.26 264.58,-112.34"/>
<polygon fill="black" stroke="black" points="262.21,-114.97 272.47,-117.63 266.11,-109.16 262.21,-114.97"/>
<text text-anchor="middle" x="273.44" y="-75" font-family="Times,serif" font-size="14.00">Weight: 1.000000</text>
<text text-anchor="middle" x="273.44" y="-58.2" font-family="Times,serif" font-size="14.00">Innovation: 4</text>
</g>
<!-- 2 -->
<g id="node3" class="node">
<title>2</title>
<ellipse fill="none" stroke="black" cx="482.47" cy="-18" rx="31.15" ry="18"/>
<text text-anchor="middle" x="482.47" y="-13.8" font-family="Times,serif" font-size="14.00">ID: 2</text>
</g>
<!-- 2&#45;&gt;3 -->
<g id="edge3" class="edge">
<title>2&#45;&gt;3</title>
<path fill="none" stroke="black" d="M492.39,-35.52C495.26,-41.18 498.02,-47.68 499.47,-54 523.96,-160.47 557.4,-207.18 499.47,-299.81 459.1,-364.36 367.97,-388.98 312.1,-398.2"/>
<polygon fill="black" stroke="black" points="311.59,-394.74 302.23,-399.72 312.65,-401.66 311.59,-394.74"/>
<text text-anchor="middle" x="582.11" y="-206.9" font-family="Times,serif" font-size="14.00">Weight: 1.000000</text>
<text text-anchor="middle" x="582.11" y="-190.1" font-family="Times,serif" font-size="14.00">Innovation: 3</text>
</g>
<!-- 2&#45;&gt;4 -->
<g id="edge8" class="edge">
<title>2&#45;&gt;4</title>
<path fill="none" stroke="black" d="M455.74,-27.82C438.71,-33.98 416.52,-43.06 398.37,-54 373.67,-68.89 348.65,-89.64 329.96,-106.5"/>
<polygon fill="black" stroke="black" points="327.7,-103.82 322.69,-113.16 332.43,-108.98 327.7,-103.82"/>
<text text-anchor="middle" x="448.92" y="-75" font-family="Times,serif" font-size="14.00">Weight: 1.000000</text>
<text text-anchor="middle" x="448.92" y="-58.2" font-family="Times,serif" font-size="14.00">Innovation: 9</text>
</g>
<!-- 4&#45;&gt;3 -->
<g id="edge5" class="edge">
<title>4&#45;&gt;3</title>
<path fill="none" stroke="black" stroke-dasharray="5,2" d="M328.27,-149.2C343.79,-157.02 361.54,-169.06 370.47,-185.9 404.92,-250.89 409.22,-288.89 370.47,-351.41 357.4,-372.5 332.96,-385.33 310.96,-392.98"/>
<polygon fill="black" stroke="black" points="309.99,-389.62 301.52,-395.98 312.11,-396.29 309.99,-389.62"/>
<text text-anchor="middle" x="448.49" y="-272.86" font-family="Times,serif" font-size="14.00">Weight: 1.000000</text>
<text text-anchor="middle" x="448.49" y="-256.06" font-family="Times,serif" font-size="14.00">Innovation: 5</text>
</g>
<!-- 4&#45;&gt;5 -->
<g id="edge6" class="edge">
<title>4&#45;&gt;5</title>
<path fill="none" stroke="black" d="M280.79,-162.3C276.23,-169.54 271.93,-177.72 269.37,-185.9 265.44,-198.47 263.85,-212.64 263.41,-225.62"/>
<polygon fill="black" stroke="black" points="259.91,-225.57 263.31,-235.61 266.91,-225.64 259.91,-225.57"/>
<text text-anchor="middle" x="319.92" y="-206.9" font-family="Times,serif" font-size="14.00">Weight: 1.000000</text>
<text text-anchor="middle" x="319.92" y="-190.1" font-family="Times,serif" font-size="14.00">Innovation: 6</text>
</g>
<!-- 5&#45;&gt;3 -->
<g id="edge7" class="edge">
<title>5&#45;&gt;3</title>
<path fill="none" stroke="black" d="M265.47,-300.04C265.47,-317.04 265.47,-338.57 265.47,-357.59"/>
<polygon fill="black" stroke="black" points="261.97,-357.53 265.47,-367.53 268.97,-357.53 261.97,-357.53"/>
<text text-anchor="middle" x="316.02" y="-338.81" font-family="Times,serif" font-size="14.00">Weight: 1.000000</text>
<text text-anchor="middle" x="316.02" y="-322.01" font-family="Times,serif" font-size="14.00">Innovation: 7</text>
</g>
</g>
</svg>
