<?xml version="1.0" encoding="UTF-8" standalone="no"?>
<!DOCTYPE svg PUBLIC "-//W3C//DTD SVG 1.1//EN"
 "http://www.w3.org/Graphics/SVG/1.1/DTD/svg11.dtd">
<!-- Generated by graphviz version 12.2.0 (0)
 -->
<!-- Title: Genome Pages: 1 -->
<svg width="1193pt" height="45pt"
 viewBox="0.00 0.00 1192.54 44.64" xmlns="http://www.w3.org/2000/svg" xmlns:xlink="http://www.w3.org/1999/xlink">
<g id="graph0" class="graph" transform="scale(1 1) rotate(0) translate(4 40.64)">
<title>Genome</title>
<polygon fill="white" stroke="none" points="-4,4 -4,-40.64 1188.54,-40.64 1188.54,4 -4,4"/>
<!-- &#45;1 -->
<g id="node1" class="node">
<title>&#45;1</title>
<ellipse fill="none" stroke="black" cx="27" cy="-18.3" rx="27" ry="18"/>
<text text-anchor="middle" x="27" y="-14.1" font-family="Times,serif" font-size="14.00">&#45;1</text>
</g>
<!-- &#45;1&#45;&gt;&#45;1 -->
<g id="edge1" class="edge">
<title>&#45;1&#45;&gt;&#45;1</title>
<path fill="none" stroke="black" d="M54.24,-16.8C64.02,-16.77 72,-17.27 72,-18.3 72,-18.88 69.48,-19.29 65.53,-19.53"/>
<polygon fill="black" stroke="black" points="65.67,-16.03 55.75,-19.76 65.83,-23.03 65.67,-16.03"/>
<text text-anchor="middle" x="109.52" y="-22.5" font-family="Times,serif" font-size="14.00">Weight: 1</text>
<text text-anchor="middle" x="109.52" y="-5.7" font-family="Times,serif" font-size="14.00">Innovation: 1</text>
</g>
<!-- &#45;1&#45;&gt;&#45;1 -->
<g id="edge2" class="edge">
<title>&#45;1&#45;&gt;&#45;1</title>
<path fill="none" stroke="black" stroke-dasharray="5,2" d="M54.04,-16.07C90.75,-14.54 147.04,-15.28 147.04,-18.3 147.04,-21.02 101.21,-21.89 65.29,-20.91"/>
<polygon fill="black" stroke="black" points="65.67,-17.42 55.56,-20.58 65.43,-24.42 65.67,-17.42"/>
<text text-anchor="middle" x="184.57" y="-22.5" font-family="Times,serif" font-size="14.00">Weight: 1</text>
<text text-anchor="middle" x="184.57" y="-5.7" font-family="Times,serif" font-size="14.00">Innovation: 2</text>
</g>
<!-- &#45;1&#45;&gt;&#45;1 -->
<g id="edge3" class="edge">
<title>&#45;1&#45;&gt;&#45;1</title>
<path fill="none" stroke="black" d="M53.83,-15.62C109.52,-12.5 222.09,-13.39 222.09,-18.3 222.09,-22.89 123.56,-23.97 65.26,-21.53"/>
<polygon fill="black" stroke="black" points="65.49,-18.04 55.34,-21.05 65.16,-25.03 65.49,-18.04"/>
<text text-anchor="middle" x="259.61" y="-22.5" font-family="Times,serif" font-size="14.00">Weight: 1</text>
<text text-anchor="middle" x="259.61" y="-5.7" font-family="Times,serif" font-size="14.00">Innovation: 3</text>
</g>
<!-- &#45;1&#45;&gt;&#45;1 -->
<g id="edge4" class="edge">
<title>&#45;1&#45;&gt;&#45;1</title>
<path fill="none" stroke="black" d="M53.75,-15.27C125.17,-10.48 297.13,-11.49 297.13,-18.3 297.13,-24.78 141.56,-26.01 64.9,-21.99"/>
<polygon fill="black" stroke="black" points="65.45,-18.52 55.26,-21.42 65.03,-25.51 65.45,-18.52"/>
<text text-anchor="middle" x="334.66" y="-22.5" font-family="Times,serif" font-size="14.00">Weight: 1</text>
<text text-anchor="middle" x="334.66" y="-5.7" font-family="Times,serif" font-size="14.00">Innovation: 4</text>
</g>
<!-- &#45;1&#45;&gt;&#45;1 -->
<g id="edge5" class="edge">
<title>&#45;1&#45;&gt;&#45;1</title>
<path fill="none" stroke="black" stroke-dasharray="5,2" d="M53.89,-14.95C139.33,-8.46 372.18,-9.58 372.18,-18.3 372.18,-26.66 158.04,-28.03 65.12,-22.41"/>
<polygon fill="black" stroke="black" points="65.61,-18.93 55.4,-21.75 65.14,-25.92 65.61,-18.93"/>
<text text-anchor="middle" x="409.7" y="-22.5" font-family="Times,serif" font-size="14.00">Weight: 1</text>
<text text-anchor="middle" x="409.7" y="-5.7" font-family="Times,serif" font-size="14.00">Innovation: 5</text>
</g>
<!-- &#45;1&#45;&gt;&#45;1 -->
<g id="edge6" class="edge">
<title>&#45;1&#45;&gt;&#45;1</title>
<path fill="none" stroke="black" d="M53.66,-14.71C151.55,-6.45 447.22,-7.65 447.22,-18.3 447.22,-28.57 172.53,-30.05 65.02,-22.75"/>
<polygon fill="black" stroke="black" points="65.4,-19.27 55.17,-22 64.87,-26.25 65.4,-19.27"/>
<text text-anchor="middle" x="484.75" y="-22.5" font-family="Times,serif" font-size="14.00">Weight: 1</text>
<text text-anchor="middle" x="484.75" y="-5.7" font-family="Times,serif" font-size="14.00">Innovation: 6</text>
</g>
<!-- &#45;1&#45;&gt;&#45;1 -->
<g id="edge7" class="edge">
<title>&#45;1&#45;&gt;&#45;1</title>
<path fill="none" stroke="black" d="M53.83,-14.47C163.66,-4.44 522.27,-5.72 522.27,-18.3 522.27,-30.47 186.4,-32.06 65.2,-23.07"/>
<polygon fill="black" stroke="black" points="65.59,-19.59 55.34,-22.26 65.02,-26.56 65.59,-19.59"/>
<text text-anchor="middle" x="559.79" y="-22.5" font-family="Times,serif" font-size="14.00">Weight: 1</text>
<text text-anchor="middle" x="559.79" y="-5.7" font-family="Times,serif" font-size="14.00">Innovation: 7</text>
</g>
<!-- &#45;1&#45;&gt;&#45;1 -->
<g id="edge8" class="edge">
<title>&#45;1&#45;&gt;&#45;1</title>
<path fill="none" stroke="black" d="M53.48,-14.3C173.92,-2.43 597.31,-3.77 597.31,-18.3 597.31,-32.4 198.36,-34.08 64.83,-23.31"/>
<polygon fill="black" stroke="black" points="65.26,-19.83 54.99,-22.44 64.64,-26.81 65.26,-19.83"/>
<text text-anchor="middle" x="634.84" y="-22.5" font-family="Times,serif" font-size="14.00">Weight: 1</text>
<text text-anchor="middle" x="634.84" y="-5.7" font-family="Times,serif" font-size="14.00">Innovation: 9</text>
</g>
<!-- &#45;1&#45;&gt;&#45;1 -->
<g id="edge9" class="edge">
<title>&#45;1&#45;&gt;&#45;1</title>
<path fill="none" stroke="black" d="M53.63,-14.1C184.75,-0.43 672.36,-1.83 672.36,-18.3 672.36,-34.34 210.13,-36.09 64.73,-23.55"/>
<polygon fill="black" stroke="black" points="65.42,-20.1 55.14,-22.64 64.76,-27.07 65.42,-20.1"/>
<text text-anchor="middle" x="713.38" y="-22.5" font-family="Times,serif" font-size="14.00">Weight: 1</text>
<text text-anchor="middle" x="713.38" y="-5.7" font-family="Times,serif" font-size="14.00">Innovation: 10</text>
</g>
<!-- &#45;1&#45;&gt;&#45;1 -->
<g id="edge10" class="edge">
<title>&#45;1&#45;&gt;&#45;1</title>
<path fill="none" stroke="black" d="M53.37,-13.98C194.86,1.58 754.4,0.14 754.4,-18.3 754.4,-36.29 221.85,-38.1 64.47,-23.73"/>
<polygon fill="black" stroke="black" points="65.17,-20.28 54.88,-22.77 64.48,-27.25 65.17,-20.28"/>
<text text-anchor="middle" x="791.93" y="-22.5" font-family="Times,serif" font-size="14.00">Weight: 1</text>
<text text-anchor="middle" x="791.93" y="-5.7" font-family="Times,serif" font-size="14.00">Innovation: 8</text>
</g>
<!-- &#45;1&#45;&gt;&#45;1 -->
<g id="edge11" class="edge">
<title>&#45;1&#45;&gt;&#45;1</title>
<path fill="none" stroke="black" d="M53.44,-13.82C204.66,3.58 829.45,2.09 829.45,-18.3 829.45,-38.21 233.6,-40.1 64.84,-23.97"/>
<polygon fill="black" stroke="black" points="65.25,-20.5 54.94,-22.94 64.52,-27.46 65.25,-20.5"/>
<text text-anchor="middle" x="866.97" y="-22.5" font-family="Times,serif" font-size="14.00">Weight: 1</text>
<text text-anchor="middle" x="866.97" y="-5.7" font-family="Times,serif" font-size="14.00">Innovation: 9</text>
</g>
<!-- &#45;1&#45;&gt;&#45;1 -->
<g id="edge12" class="edge">
<title>&#45;1&#45;&gt;&#45;1</title>
<path fill="none" stroke="black" d="M53.41,-13.68C213.9,5.59 904.49,4.05 904.49,-18.3 904.49,-40.16 243.91,-42.11 64.74,-24.16"/>
<polygon fill="black" stroke="black" points="65.24,-20.69 54.92,-23.08 64.48,-27.65 65.24,-20.69"/>
<text text-anchor="middle" x="945.52" y="-22.5" font-family="Times,serif" font-size="14.00">Weight: 1</text>
<text text-anchor="middle" x="945.52" y="-5.7" font-family="Times,serif" font-size="14.00">Innovation: 10</text>
</g>
</g>
</svg>
