<?xml version="1.0" encoding="UTF-8" standalone="no"?>
<!DOCTYPE svg PUBLIC "-//W3C//DTD SVG 1.1//EN"
 "http://www.w3.org/Graphics/SVG/1.1/DTD/svg11.dtd">
<!-- Generated by graphviz version 12.2.0 (0)
 -->
<!-- Title: Genome Pages: 1 -->
<svg width="821pt" height="492pt"
 viewBox="0.00 0.00 821.30 491.67" xmlns="http://www.w3.org/2000/svg" xmlns:xlink="http://www.w3.org/1999/xlink">
<g id="graph0" class="graph" transform="scale(1 1) rotate(0) translate(4 487.67)">
<title>Genome</title>
<polygon fill="white" stroke="none" points="-4,4 -4,-487.67 817.3,-487.67 817.3,4 -4,4"/>
<!-- 0 -->
<g id="node1" class="node">
<title>0</title>
<ellipse fill="none" stroke="black" cx="260.15" cy="-175.88" rx="31.15" ry="18"/>
<text text-anchor="middle" x="260.15" y="-171.68" font-family="Times,serif" font-size="14.00">ID: 0</text>
</g>
<!-- 3 -->
<g id="node4" class="node">
<title>3</title>
<ellipse fill="none" stroke="black" cx="227.15" cy="-448.52" rx="31.15" ry="31.15"/>
<ellipse fill="none" stroke="black" cx="227.15" cy="-448.52" rx="35.15" ry="35.15"/>
<text text-anchor="middle" x="227.15" y="-444.32" font-family="Times,serif" font-size="14.00">ID: 3</text>
</g>
<!-- 0&#45;&gt;3 -->
<g id="edge1" class="edge">
<title>0&#45;&gt;3</title>
<path fill="none" stroke="black" d="M255.81,-194.03C253.22,-204.39 249.91,-217.87 247.15,-229.86 241.9,-252.72 239.2,-258.22 236.11,-281.46 230.72,-321.91 228.55,-368.31 227.69,-401.77"/>
<polygon fill="black" stroke="black" points="224.2,-401.44 227.47,-411.51 231.2,-401.6 224.2,-401.44"/>
<text text-anchor="middle" x="273.63" y="-316.82" font-family="Times,serif" font-size="14.00">Weight: 1</text>
<text text-anchor="middle" x="273.63" y="-300.02" font-family="Times,serif" font-size="14.00">Innovation: 1</text>
</g>
<!-- 5 -->
<g id="node6" class="node">
<title>5</title>
<ellipse fill="none" stroke="black" cx="351.15" cy="-312.62" rx="31.15" ry="31.15"/>
<text text-anchor="middle" x="351.15" y="-308.42" font-family="Times,serif" font-size="14.00">ID: 5</text>
</g>
<!-- 0&#45;&gt;5 -->
<g id="edge9" class="edge">
<title>0&#45;&gt;5</title>
<path fill="none" stroke="black" d="M255.19,-193.83C250.79,-212.59 247,-242.88 261.11,-263.46 273.3,-281.25 287.08,-271.41 306.15,-281.46 309.58,-283.27 313.08,-285.28 316.52,-287.38"/>
<polygon fill="black" stroke="black" points="314.43,-290.2 324.75,-292.62 318.2,-284.3 314.43,-290.2"/>
<text text-anchor="middle" x="302.13" y="-250.86" font-family="Times,serif" font-size="14.00">Weight: 1</text>
<text text-anchor="middle" x="302.13" y="-234.06" font-family="Times,serif" font-size="14.00">Innovation: 10</text>
</g>
<!-- 0&#45;&gt;5 -->
<g id="edge12" class="edge">
<title>0&#45;&gt;5</title>
<path fill="none" stroke="black" d="M286.12,-186.21C305.29,-194.54 330.19,-208.73 343.15,-229.86 350.43,-241.74 353.32,-256.45 354.11,-270.1"/>
<polygon fill="black" stroke="black" points="350.61,-269.8 354.3,-279.73 357.6,-269.66 350.61,-269.8"/>
<text text-anchor="middle" x="394.58" y="-250.86" font-family="Times,serif" font-size="14.00">Weight: 1</text>
<text text-anchor="middle" x="394.58" y="-234.06" font-family="Times,serif" font-size="14.00">Innovation: 10</text>
</g>
<!-- 1 -->
<g id="node2" class="node">
<title>1</title>
<ellipse fill="none" stroke="black" cx="31.15" cy="-35.15" rx="31.15" ry="18"/>
<text text-anchor="middle" x="31.15" y="-30.95" font-family="Times,serif" font-size="14.00">ID: 1</text>
</g>
<!-- 1&#45;&gt;3 -->
<g id="edge2" class="edge">
<title>1&#45;&gt;3</title>
<path fill="none" stroke="black" stroke-dasharray="5,2" d="M29.51,-53.59C26.52,-92.94 23.17,-190.81 55.11,-263.46 84.82,-331.07 103.41,-343.68 156.15,-395.37 165.87,-404.89 177.4,-414.09 188.32,-422.04"/>
<polygon fill="black" stroke="black" points="186.28,-424.89 196.46,-427.81 190.33,-419.18 186.28,-424.89"/>
<text text-anchor="middle" x="92.63" y="-250.86" font-family="Times,serif" font-size="14.00">Weight: 1</text>
<text text-anchor="middle" x="92.63" y="-234.06" font-family="Times,serif" font-size="14.00">Innovation: 2</text>
</g>
<!-- 4 -->
<g id="node5" class="node">
<title>4</title>
<ellipse fill="none" stroke="black" cx="137.15" cy="-175.88" rx="31.15" ry="31.15"/>
<text text-anchor="middle" x="137.15" y="-171.68" font-family="Times,serif" font-size="14.00">ID: 4</text>
</g>
<!-- 1&#45;&gt;4 -->
<g id="edge4" class="edge">
<title>1&#45;&gt;4</title>
<path fill="none" stroke="black" d="M30.59,-53.54C30.83,-72.1 33.75,-101.57 48.11,-121.9 60.25,-139.1 79.9,-151.65 97.65,-160.2"/>
<polygon fill="black" stroke="black" points="95.88,-163.24 106.44,-164.16 98.76,-156.86 95.88,-163.24"/>
<text text-anchor="middle" x="85.63" y="-109.3" font-family="Times,serif" font-size="14.00">Weight: 1</text>
<text text-anchor="middle" x="85.63" y="-92.5" font-family="Times,serif" font-size="14.00">Innovation: 4</text>
</g>
<!-- 2 -->
<g id="node3" class="node">
<title>2</title>
<ellipse fill="none" stroke="black" cx="243.15" cy="-35.15" rx="31.15" ry="18"/>
<text text-anchor="middle" x="243.15" y="-30.95" font-family="Times,serif" font-size="14.00">ID: 2</text>
</g>
<!-- 2&#45;&gt;3 -->
<g id="edge3" class="edge">
<title>2&#45;&gt;3</title>
<path fill="none" stroke="black" d="M266.34,-47.37C322.63,-76.4 460.4,-159.04 439.15,-263.46 426.45,-325.87 429.93,-352.14 383.15,-395.37 353,-423.23 307.52,-436.24 273.44,-442.3"/>
<polygon fill="black" stroke="black" points="273.16,-438.8 263.85,-443.86 274.28,-445.71 273.16,-438.8"/>
<text text-anchor="middle" x="478.88" y="-250.86" font-family="Times,serif" font-size="14.00">Weight: 1</text>
<text text-anchor="middle" x="478.88" y="-234.06" font-family="Times,serif" font-size="14.00">Innovation: 3</text>
</g>
<!-- 2&#45;&gt;4 -->
<g id="edge8" class="edge">
<title>2&#45;&gt;4</title>
<path fill="none" stroke="black" d="M242.42,-53.52C240.85,-72.07 235.99,-101.53 221.15,-121.9 209.83,-137.45 192.42,-149.51 176.38,-158.17"/>
<polygon fill="black" stroke="black" points="174.81,-155.04 167.47,-162.68 177.97,-161.29 174.81,-155.04"/>
<text text-anchor="middle" x="273.64" y="-109.3" font-family="Times,serif" font-size="14.00">Weight: 1</text>
<text text-anchor="middle" x="273.64" y="-92.5" font-family="Times,serif" font-size="14.00">Innovation: 9</text>
</g>
<!-- 2&#45;&gt;4 -->
<g id="edge11" class="edge">
<title>2&#45;&gt;4</title>
<path fill="none" stroke="black" d="M214.29,-42.66C190.58,-49.65 158.34,-63.3 142.11,-88.3 133.55,-101.49 131.15,-118.32 131.3,-133.62"/>
<polygon fill="black" stroke="black" points="127.8,-133.62 131.79,-143.44 134.79,-133.28 127.8,-133.62"/>
<text text-anchor="middle" x="179.63" y="-109.3" font-family="Times,serif" font-size="14.00">Weight: 1</text>
<text text-anchor="middle" x="179.63" y="-92.5" font-family="Times,serif" font-size="14.00">Innovation: 9</text>
</g>
<!-- 4&#45;&gt;3 -->
<g id="edge5" class="edge">
<title>4&#45;&gt;3</title>
<path fill="none" stroke="black" stroke-dasharray="5,2" d="M134.86,-207.19C133.34,-241.47 134.15,-298.43 151.11,-343.77 160.83,-369.77 179.05,-394.99 195.21,-414.05"/>
<polygon fill="black" stroke="black" points="192.48,-416.25 201.7,-421.48 197.76,-411.64 192.48,-416.25"/>
<text text-anchor="middle" x="188.63" y="-316.82" font-family="Times,serif" font-size="14.00">Weight: 1</text>
<text text-anchor="middle" x="188.63" y="-300.02" font-family="Times,serif" font-size="14.00">Innovation: 5</text>
</g>
<!-- 4&#45;&gt;5 -->
<g id="edge6" class="edge">
<title>4&#45;&gt;5</title>
<path fill="none" stroke="black" d="M141.52,-207.21C145.92,-226.35 154.69,-249.94 172.11,-263.46 219.58,-300.33 249.94,-260.18 306.15,-281.46 309.87,-282.87 313.59,-284.64 317.2,-286.6"/>
<polygon fill="black" stroke="black" points="315.38,-289.59 325.74,-291.77 319,-283.6 315.38,-289.59"/>
<text text-anchor="middle" x="209.63" y="-250.86" font-family="Times,serif" font-size="14.00">Weight: 1</text>
<text text-anchor="middle" x="209.63" y="-234.06" font-family="Times,serif" font-size="14.00">Innovation: 6</text>
</g>
<!-- 5&#45;&gt;3 -->
<g id="edge7" class="edge">
<title>5&#45;&gt;3</title>
<path fill="none" stroke="black" d="M330.4,-336.03C310.66,-357.34 280.72,-389.67 258.16,-414.04"/>
<polygon fill="black" stroke="black" points="255.77,-411.47 251.54,-421.18 260.9,-416.23 255.77,-411.47"/>
<text text-anchor="middle" x="341.43" y="-382.77" font-family="Times,serif" font-size="14.00">Weight: 1</text>
<text text-anchor="middle" x="341.43" y="-365.97" font-family="Times,serif" font-size="14.00">Innovation: 7</text>
</g>
<!-- 6 -->
<g id="node7" class="node">
<title>6</title>
<ellipse fill="none" stroke="black" cx="534.15" cy="-35.15" rx="31.15" ry="18"/>
<text text-anchor="middle" x="534.15" y="-30.95" font-family="Times,serif" font-size="14.00">ID: 6</text>
</g>
<!-- 10 -->
<g id="node11" class="node">
<title>10</title>
<ellipse fill="none" stroke="black" cx="534.15" cy="-175.88" rx="35.98" ry="35.98"/>
<text text-anchor="middle" x="534.15" y="-171.68" font-family="Times,serif" font-size="14.00">ID: 10</text>
</g>
<!-- 6&#45;&gt;10 -->
<g id="edge10" class="edge">
<title>6&#45;&gt;10</title>
<path fill="none" stroke="black" d="M534.15,-53.44C534.15,-72.02 534.15,-102.35 534.15,-128.06"/>
<polygon fill="black" stroke="black" points="530.65,-127.97 534.15,-137.97 537.65,-127.97 530.65,-127.97"/>
<text text-anchor="middle" x="571.67" y="-109.3" font-family="Times,serif" font-size="14.00">Weight: 1</text>
<text text-anchor="middle" x="571.67" y="-92.5" font-family="Times,serif" font-size="14.00">Innovation: 8</text>
</g>
<!-- 7 -->
<g id="node8" class="node">
<title>7</title>
<ellipse fill="none" stroke="black" cx="614.15" cy="-35.15" rx="31.15" ry="18"/>
<text text-anchor="middle" x="614.15" y="-30.95" font-family="Times,serif" font-size="14.00">ID: 7</text>
</g>
<!-- 8 -->
<g id="node9" class="node">
<title>8</title>
<ellipse fill="none" stroke="black" cx="694.15" cy="-35.15" rx="31.15" ry="18"/>
<text text-anchor="middle" x="694.15" y="-30.95" font-family="Times,serif" font-size="14.00">ID: 8</text>
</g>
<!-- 9 -->
<g id="node10" class="node">
<title>9</title>
<ellipse fill="none" stroke="black" cx="778.15" cy="-35.15" rx="31.15" ry="31.15"/>
<ellipse fill="none" stroke="black" cx="778.15" cy="-35.15" rx="35.15" ry="35.15"/>
<text text-anchor="middle" x="778.15" y="-30.95" font-family="Times,serif" font-size="14.00">ID: 9</text>
</g>
</g>
</svg>
