<?xml version="1.0" encoding="UTF-8" standalone="no"?>
<!DOCTYPE svg PUBLIC "-//W3C//DTD SVG 1.1//EN"
 "http://www.w3.org/Graphics/SVG/1.1/DTD/svg11.dtd">
<!-- Generated by graphviz version 12.2.0 (0)
 -->
<!-- Title: Genome Pages: 1 -->
<svg width="398pt" height="316pt"
 viewBox="0.00 0.00 398.30 315.81" xmlns="http://www.w3.org/2000/svg" xmlns:xlink="http://www.w3.org/1999/xlink">
<g id="graph0" class="graph" transform="scale(1 1) rotate(0) translate(4 311.81)">
<title>Genome</title>
<polygon fill="white" stroke="none" points="-4,4 -4,-311.81 394.3,-311.81 394.3,4 -4,4"/>
<!-- 0 -->
<g id="node1" class="node">
<title>0</title>
<ellipse fill="none" stroke="black" cx="31.15" cy="-18" rx="31.15" ry="18"/>
<text text-anchor="middle" x="31.15" y="-13.8" font-family="Times,serif" font-size="14.00">ID: 0</text>
</g>
<!-- 3 -->
<g id="node4" class="node">
<title>3</title>
<ellipse fill="none" stroke="black" cx="190.15" cy="-272.66" rx="31.15" ry="31.15"/>
<ellipse fill="none" stroke="black" cx="190.15" cy="-272.66" rx="35.15" ry="35.15"/>
<text text-anchor="middle" x="190.15" y="-268.46" font-family="Times,serif" font-size="14.00">ID: 3</text>
</g>
<!-- 0&#45;&gt;3 -->
<g id="edge1" class="edge">
<title>0&#45;&gt;3</title>
<path fill="none" stroke="black" d="M26.06,-35.9C18.34,-64.91 6.9,-125.2 30.11,-167.9 54.53,-212.85 107.76,-241.33 146.13,-256.85"/>
<polygon fill="black" stroke="black" points="144.52,-259.98 155.11,-260.34 147.06,-253.46 144.52,-259.98"/>
<text text-anchor="middle" x="67.63" y="-140.95" font-family="Times,serif" font-size="14.00">Weight: 1</text>
<text text-anchor="middle" x="67.63" y="-124.15" font-family="Times,serif" font-size="14.00">Innovation: 1</text>
</g>
<!-- 4 -->
<g id="node5" class="node">
<title>4</title>
<ellipse fill="none" stroke="black" cx="145.15" cy="-136.75" rx="31.15" ry="31.15"/>
<text text-anchor="middle" x="145.15" y="-132.55" font-family="Times,serif" font-size="14.00">ID: 4</text>
</g>
<!-- 0&#45;&gt;4 -->
<g id="edge6" class="edge">
<title>0&#45;&gt;4</title>
<path fill="none" stroke="black" d="M35,-36.26C39.08,-51.3 46.83,-72.94 60.11,-87.6 71.33,-100 78.57,-97.4 93.15,-105.6 98.2,-108.44 103.5,-111.46 108.7,-114.45"/>
<polygon fill="black" stroke="black" points="106.79,-117.39 117.2,-119.36 110.29,-111.33 106.79,-117.39"/>
<text text-anchor="middle" x="97.63" y="-75" font-family="Times,serif" font-size="14.00">Weight: 1</text>
<text text-anchor="middle" x="97.63" y="-58.2" font-family="Times,serif" font-size="14.00">Innovation: 8</text>
</g>
<!-- 1 -->
<g id="node2" class="node">
<title>1</title>
<ellipse fill="none" stroke="black" cx="190.15" cy="-18" rx="31.15" ry="18"/>
<text text-anchor="middle" x="190.15" y="-13.8" font-family="Times,serif" font-size="14.00">ID: 1</text>
</g>
<!-- 1&#45;&gt;3 -->
<g id="edge2" class="edge">
<title>1&#45;&gt;3</title>
<path fill="none" stroke="black" stroke-dasharray="5,2" d="M207.12,-33.35C212.7,-39.13 218.22,-46.26 221.15,-54 247.23,-122.78 240.64,-148.58 221.15,-219.5 219.83,-224.32 217.93,-229.14 215.72,-233.8"/>
<polygon fill="black" stroke="black" points="212.79,-231.86 211.19,-242.33 218.97,-235.15 212.79,-231.86"/>
<text text-anchor="middle" x="275.85" y="-140.95" font-family="Times,serif" font-size="14.00">Weight: 1</text>
<text text-anchor="middle" x="275.85" y="-124.15" font-family="Times,serif" font-size="14.00">Innovation: 2</text>
</g>
<!-- 1&#45;&gt;4 -->
<g id="edge4" class="edge">
<title>1&#45;&gt;4</title>
<path fill="none" stroke="black" d="M168.13,-30.75C159.63,-36.53 150.83,-44.35 146.11,-54 140.07,-66.32 138.46,-81 138.79,-94.49"/>
<polygon fill="black" stroke="black" points="135.29,-94.69 139.42,-104.45 142.28,-94.24 135.29,-94.69"/>
<text text-anchor="middle" x="183.63" y="-75" font-family="Times,serif" font-size="14.00">Weight: 1</text>
<text text-anchor="middle" x="183.63" y="-58.2" font-family="Times,serif" font-size="14.00">Innovation: 4</text>
</g>
<!-- 2 -->
<g id="node3" class="node">
<title>2</title>
<ellipse fill="none" stroke="black" cx="359.15" cy="-136.75" rx="31.15" ry="18"/>
<text text-anchor="middle" x="359.15" y="-132.55" font-family="Times,serif" font-size="14.00">ID: 2</text>
</g>
<!-- 2&#45;&gt;3 -->
<g id="edge3" class="edge">
<title>2&#45;&gt;3</title>
<path fill="none" stroke="black" d="M341.39,-151.83C314.12,-173.43 261.4,-215.2 225.99,-243.26"/>
<polygon fill="black" stroke="black" points="224.23,-240.19 218.57,-249.14 228.58,-245.67 224.23,-240.19"/>
<text text-anchor="middle" x="332.28" y="-206.9" font-family="Times,serif" font-size="14.00">Weight: 1</text>
<text text-anchor="middle" x="332.28" y="-190.1" font-family="Times,serif" font-size="14.00">Innovation: 3</text>
</g>
<!-- 4&#45;&gt;3 -->
<g id="edge5" class="edge">
<title>4&#45;&gt;3</title>
<path fill="none" stroke="black" d="M140.72,-167.77C139.56,-183.63 140.01,-203.14 146.11,-219.5 148.75,-226.59 152.81,-233.39 157.42,-239.6"/>
<polygon fill="black" stroke="black" points="154.48,-241.53 163.51,-247.07 159.9,-237.1 154.48,-241.53"/>
<text text-anchor="middle" x="183.63" y="-206.9" font-family="Times,serif" font-size="14.00">Weight: 1</text>
<text text-anchor="middle" x="183.63" y="-190.1" font-family="Times,serif" font-size="14.00">Innovation: 5</text>
</g>
</g>
</svg>
