<?xml version="1.0" encoding="UTF-8" standalone="no"?>
<!DOCTYPE svg PUBLIC "-//W3C//DTD SVG 1.1//EN"
 "http://www.w3.org/Graphics/SVG/1.1/DTD/svg11.dtd">
<!-- Generated by graphviz version 12.2.0 (0)
 -->
<!-- Title: Genome Pages: 1 -->
<svg width="505pt" height="448pt"
 viewBox="0.00 0.00 505.18 447.71" xmlns="http://www.w3.org/2000/svg" xmlns:xlink="http://www.w3.org/1999/xlink">
<g id="graph0" class="graph" transform="scale(1 1) rotate(0) translate(4 443.71)">
<title>Genome</title>
<polygon fill="white" stroke="none" points="-4,4 -4,-443.71 501.18,-443.71 501.18,4 -4,4"/>
<!-- 0 -->
<g id="node1" class="node">
<title>0</title>
<ellipse fill="none" stroke="black" cx="98.3" cy="-136.75" rx="31.15" ry="18"/>
<text text-anchor="middle" x="98.3" y="-132.55" font-family="Times,serif" font-size="14.00">ID: 0</text>
</g>
<!-- 3 -->
<g id="node4" class="node">
<title>3</title>
<ellipse fill="none" stroke="black" cx="212.3" cy="-404.56" rx="31.15" ry="31.15"/>
<ellipse fill="none" stroke="black" cx="212.3" cy="-404.56" rx="35.15" ry="35.15"/>
<text text-anchor="middle" x="212.3" y="-400.36" font-family="Times,serif" font-size="14.00">ID: 3</text>
</g>
<!-- 0&#45;&gt;3 -->
<g id="edge1" class="edge">
<title>0&#45;&gt;3</title>
<path fill="none" stroke="black" d="M93.79,-154.77C86.63,-185.36 75.53,-250.96 97.25,-299.81 112.54,-334.17 145.45,-361.95 172.17,-380.08"/>
<polygon fill="black" stroke="black" points="170.14,-382.94 180.42,-385.49 173.98,-377.08 170.14,-382.94"/>
<text text-anchor="middle" x="134.78" y="-272.86" font-family="Times,serif" font-size="14.00">Weight: 1</text>
<text text-anchor="middle" x="134.78" y="-256.06" font-family="Times,serif" font-size="14.00">Innovation: 1</text>
</g>
<!-- 5 -->
<g id="node6" class="node">
<title>5</title>
<ellipse fill="none" stroke="black" cx="212.3" cy="-268.66" rx="31.15" ry="31.15"/>
<text text-anchor="middle" x="212.3" y="-264.46" font-family="Times,serif" font-size="14.00">ID: 5</text>
</g>
<!-- 0&#45;&gt;5 -->
<g id="edge9" class="edge">
<title>0&#45;&gt;5</title>
<path fill="none" stroke="black" d="M101.03,-155.18C104.6,-173.07 112.38,-200.86 128.25,-219.5 138.84,-231.94 146.11,-229.41 160.3,-237.5 165.32,-240.37 170.61,-243.41 175.81,-246.42"/>
<polygon fill="black" stroke="black" points="173.9,-249.35 184.31,-251.33 177.41,-243.29 173.9,-249.35"/>
<text text-anchor="middle" x="169.28" y="-206.9" font-family="Times,serif" font-size="14.00">Weight: 1</text>
<text text-anchor="middle" x="169.28" y="-190.1" font-family="Times,serif" font-size="14.00">Innovation: 10</text>
</g>
<!-- 1 -->
<g id="node2" class="node">
<title>1</title>
<ellipse fill="none" stroke="black" cx="96.3" cy="-18" rx="31.15" ry="18"/>
<text text-anchor="middle" x="96.3" y="-13.8" font-family="Times,serif" font-size="14.00">ID: 1</text>
</g>
<!-- 1&#45;&gt;3 -->
<g id="edge2" class="edge">
<title>1&#45;&gt;3</title>
<path fill="none" stroke="black" stroke-dasharray="5,2" d="M81.21,-33.65C49.62,-66.18 -18.65,-147.28 5.25,-219.5 28.2,-288.85 46.91,-304.97 103.3,-351.41 122.47,-367.19 147.21,-379.53 168.28,-388.23"/>
<polygon fill="black" stroke="black" points="166.92,-391.46 177.5,-391.89 169.5,-384.95 166.92,-391.46"/>
<text text-anchor="middle" x="42.78" y="-206.9" font-family="Times,serif" font-size="14.00">Weight: 1</text>
<text text-anchor="middle" x="42.78" y="-190.1" font-family="Times,serif" font-size="14.00">Innovation: 2</text>
</g>
<!-- 4 -->
<g id="node5" class="node">
<title>4</title>
<ellipse fill="none" stroke="black" cx="243.3" cy="-136.75" rx="31.15" ry="31.15"/>
<text text-anchor="middle" x="243.3" y="-132.55" font-family="Times,serif" font-size="14.00">ID: 4</text>
</g>
<!-- 1&#45;&gt;4 -->
<g id="edge4" class="edge">
<title>1&#45;&gt;4</title>
<path fill="none" stroke="black" d="M114.03,-33.08C137.84,-51.99 180.58,-85.94 210.37,-109.6"/>
<polygon fill="black" stroke="black" points="207.97,-112.16 217.98,-115.64 212.32,-106.68 207.97,-112.16"/>
<text text-anchor="middle" x="216.12" y="-75" font-family="Times,serif" font-size="14.00">Weight: 1</text>
<text text-anchor="middle" x="216.12" y="-58.2" font-family="Times,serif" font-size="14.00">Innovation: 4</text>
</g>
<!-- 2 -->
<g id="node3" class="node">
<title>2</title>
<ellipse fill="none" stroke="black" cx="387.3" cy="-18" rx="31.15" ry="18"/>
<text text-anchor="middle" x="387.3" y="-13.8" font-family="Times,serif" font-size="14.00">ID: 2</text>
</g>
<!-- 2&#45;&gt;3 -->
<g id="edge3" class="edge">
<title>2&#45;&gt;3</title>
<path fill="none" stroke="black" d="M393.58,-35.92C409.53,-81.89 446.92,-211.58 397.3,-299.81 368.18,-351.59 302.29,-379.31 257.54,-392.73"/>
<polygon fill="black" stroke="black" points="256.76,-389.31 248.11,-395.43 258.69,-396.04 256.76,-389.31"/>
<text text-anchor="middle" x="459.66" y="-206.9" font-family="Times,serif" font-size="14.00">Weight: 1</text>
<text text-anchor="middle" x="459.66" y="-190.1" font-family="Times,serif" font-size="14.00">Innovation: 3</text>
</g>
<!-- 2&#45;&gt;4 -->
<g id="edge8" class="edge">
<title>2&#45;&gt;4</title>
<path fill="none" stroke="black" d="M363.46,-29.9C350.95,-36.14 335.68,-44.59 323.25,-54 304.16,-68.46 285.3,-87.45 270.7,-103.49"/>
<polygon fill="black" stroke="black" points="268.12,-101.13 264.06,-110.92 273.34,-105.8 268.12,-101.13"/>
<text text-anchor="middle" x="360.78" y="-75" font-family="Times,serif" font-size="14.00">Weight: 1</text>
<text text-anchor="middle" x="360.78" y="-58.2" font-family="Times,serif" font-size="14.00">Innovation: 9</text>
</g>
<!-- 4&#45;&gt;3 -->
<g id="edge5" class="edge">
<title>4&#45;&gt;3</title>
<path fill="none" stroke="black" stroke-dasharray="5,2" d="M269.19,-154.55C279.33,-162.67 289.83,-173.39 295.3,-185.9 309.39,-218.16 340.85,-262.57 291.3,-351.41 283.1,-366.1 268.83,-377.38 254.65,-385.63"/>
<polygon fill="black" stroke="black" points="253.4,-382.33 246.25,-390.15 256.72,-388.49 253.4,-382.33"/>
<text text-anchor="middle" x="355.7" y="-272.86" font-family="Times,serif" font-size="14.00">Weight: 1</text>
<text text-anchor="middle" x="355.7" y="-256.06" font-family="Times,serif" font-size="14.00">Innovation: 5</text>
</g>
<!-- 4&#45;&gt;5 -->
<g id="edge6" class="edge">
<title>4&#45;&gt;5</title>
<path fill="none" stroke="black" d="M228.42,-164.61C225.24,-171.38 222.24,-178.76 220.25,-185.9 216.71,-198.63 214.69,-212.85 213.55,-225.82"/>
<polygon fill="black" stroke="black" points="210.06,-225.57 212.85,-235.79 217.04,-226.06 210.06,-225.57"/>
<text text-anchor="middle" x="257.78" y="-206.9" font-family="Times,serif" font-size="14.00">Weight: 1</text>
<text text-anchor="middle" x="257.78" y="-190.1" font-family="Times,serif" font-size="14.00">Innovation: 6</text>
</g>
<!-- 5&#45;&gt;3 -->
<g id="edge7" class="edge">
<title>5&#45;&gt;3</title>
<path fill="none" stroke="black" d="M212.3,-300.04C212.3,-317.04 212.3,-338.57 212.3,-357.59"/>
<polygon fill="black" stroke="black" points="208.8,-357.53 212.3,-367.53 215.8,-357.53 208.8,-357.53"/>
<text text-anchor="middle" x="249.82" y="-338.81" font-family="Times,serif" font-size="14.00">Weight: 1</text>
<text text-anchor="middle" x="249.82" y="-322.01" font-family="Times,serif" font-size="14.00">Innovation: 7</text>
</g>
</g>
</svg>
