<?xml version="1.0" encoding="UTF-8" standalone="no"?>
<!DOCTYPE svg PUBLIC "-//W3C//DTD SVG 1.1//EN"
 "http://www.w3.org/Graphics/SVG/1.1/DTD/svg11.dtd">
<!-- Generated by graphviz version 12.2.0 (0)
 -->
<!-- Title: Genome Pages: 1 -->
<svg width="663pt" height="316pt"
 viewBox="0.00 0.00 663.30 315.81" xmlns="http://www.w3.org/2000/svg" xmlns:xlink="http://www.w3.org/1999/xlink">
<g id="graph0" class="graph" transform="scale(1 1) rotate(0) translate(4 311.81)">
<title>Genome</title>
<polygon fill="white" stroke="none" points="-4,4 -4,-311.81 659.3,-311.81 659.3,4 -4,4"/>
<!-- 0 -->
<g id="node1" class="node">
<title>0</title>
<ellipse fill="none" stroke="black" cx="31.15" cy="-18" rx="31.15" ry="18"/>
<text text-anchor="middle" x="31.15" y="-13.8" font-family="Times,serif" font-size="14.00">ID: 0</text>
</g>
<!-- 3 -->
<g id="node4" class="node">
<title>3</title>
<ellipse fill="none" stroke="black" cx="413.15" cy="-272.66" rx="31.15" ry="31.15"/>
<ellipse fill="none" stroke="black" cx="413.15" cy="-272.66" rx="35.15" ry="35.15"/>
<text text-anchor="middle" x="413.15" y="-268.46" font-family="Times,serif" font-size="14.00">ID: 3</text>
</g>
<!-- 0&#45;&gt;3 -->
<g id="edge1" class="edge">
<title>0&#45;&gt;3</title>
<path fill="none" stroke="black" d="M29.92,-36.43C29.5,-50.62 30.25,-70.94 36.15,-87.6 50.67,-128.59 57.11,-142.02 92.06,-167.9 176.43,-230.41 300.06,-256.25 366.61,-266.12"/>
<polygon fill="black" stroke="black" points="366.07,-269.58 376.47,-267.52 367.06,-262.65 366.07,-269.58"/>
<text text-anchor="middle" x="142.6" y="-140.95" font-family="Times,serif" font-size="14.00">Weight: 1.000000</text>
<text text-anchor="middle" x="142.6" y="-124.15" font-family="Times,serif" font-size="14.00">Innovation: 1</text>
</g>
<!-- 4 -->
<g id="node5" class="node">
<title>4</title>
<ellipse fill="none" stroke="black" cx="233.15" cy="-136.75" rx="31.15" ry="31.15"/>
<text text-anchor="middle" x="233.15" y="-132.55" font-family="Times,serif" font-size="14.00">ID: 4</text>
</g>
<!-- 0&#45;&gt;4 -->
<g id="edge6" class="edge">
<title>0&#45;&gt;4</title>
<path fill="none" stroke="black" d="M34.28,-36.13C38.01,-51.73 45.77,-74.29 61.06,-87.6 63.6,-89.81 142.06,-111.23 192.15,-124.74"/>
<polygon fill="black" stroke="black" points="190.95,-128.05 201.52,-127.27 192.77,-121.29 190.95,-128.05"/>
<text text-anchor="middle" x="111.6" y="-75" font-family="Times,serif" font-size="14.00">Weight: 1.000000</text>
<text text-anchor="middle" x="111.6" y="-58.2" font-family="Times,serif" font-size="14.00">Innovation: 6</text>
</g>
<!-- 1 -->
<g id="node2" class="node">
<title>1</title>
<ellipse fill="none" stroke="black" cx="295.15" cy="-18" rx="31.15" ry="18"/>
<text text-anchor="middle" x="295.15" y="-13.8" font-family="Times,serif" font-size="14.00">ID: 1</text>
</g>
<!-- 1&#45;&gt;3 -->
<g id="edge2" class="edge">
<title>1&#45;&gt;3</title>
<path fill="none" stroke="black" stroke-dasharray="5,2" d="M326.05,-21.31C367.68,-25.13 438.39,-34.39 454.15,-54 495.34,-105.24 463.23,-185.11 437.35,-232.52"/>
<polygon fill="black" stroke="black" points="434.39,-230.66 432.53,-241.09 440.49,-234.09 434.39,-230.66"/>
<text text-anchor="middle" x="524.42" y="-140.95" font-family="Times,serif" font-size="14.00">Weight: 1.000000</text>
<text text-anchor="middle" x="524.42" y="-124.15" font-family="Times,serif" font-size="14.00">Innovation: 2</text>
</g>
<!-- 1&#45;&gt;4 -->
<g id="edge4" class="edge">
<title>1&#45;&gt;4</title>
<path fill="none" stroke="black" d="M264.92,-23.38C232.21,-28.81 183.24,-39.2 172.06,-54 163.05,-65.92 165.54,-74.16 172.06,-87.6 177.37,-98.56 186.52,-107.77 196.15,-115.11"/>
<polygon fill="black" stroke="black" points="193.97,-117.85 204.17,-120.7 197.97,-112.11 193.97,-117.85"/>
<text text-anchor="middle" x="222.6" y="-75" font-family="Times,serif" font-size="14.00">Weight: 1.000000</text>
<text text-anchor="middle" x="222.6" y="-58.2" font-family="Times,serif" font-size="14.00">Innovation: 4</text>
</g>
<!-- 1&#45;&gt;4 -->
<g id="edge7" class="edge">
<title>1&#45;&gt;4</title>
<path fill="none" stroke="black" d="M291.53,-36.37C288.1,-50.7 282.12,-71.26 273.15,-87.6 269.94,-93.46 265.96,-99.28 261.77,-104.75"/>
<polygon fill="black" stroke="black" points="259.16,-102.41 255.57,-112.38 264.59,-106.83 259.16,-102.41"/>
<text text-anchor="middle" x="368.51" y="-75" font-family="Times,serif" font-size="14.00">Weight: 1680410496.000000</text>
<text text-anchor="middle" x="368.51" y="-58.2" font-family="Times,serif" font-size="14.00">Innovation: 0</text>
</g>
<!-- 2 -->
<g id="node3" class="node">
<title>2</title>
<ellipse fill="none" stroke="black" cx="624.15" cy="-136.75" rx="31.15" ry="18"/>
<text text-anchor="middle" x="624.15" y="-132.55" font-family="Times,serif" font-size="14.00">ID: 2</text>
</g>
<!-- 2&#45;&gt;3 -->
<g id="edge3" class="edge">
<title>2&#45;&gt;3</title>
<path fill="none" stroke="black" d="M604.53,-151.1C596.67,-156.39 587.52,-162.49 579.15,-167.9 536.18,-195.72 486.3,-226.72 452.53,-247.53"/>
<polygon fill="black" stroke="black" points="450.99,-244.37 444.31,-252.59 454.66,-250.33 450.99,-244.37"/>
<text text-anchor="middle" x="598.16" y="-206.9" font-family="Times,serif" font-size="14.00">Weight: 1.000000</text>
<text text-anchor="middle" x="598.16" y="-190.1" font-family="Times,serif" font-size="14.00">Innovation: 3</text>
</g>
<!-- 4&#45;&gt;3 -->
<g id="edge5" class="edge">
<title>4&#45;&gt;3</title>
<path fill="none" stroke="black" d="M257.8,-156.09C288.38,-178.84 340.81,-217.84 376.2,-244.17"/>
<polygon fill="black" stroke="black" points="373.93,-246.84 384.04,-250 378.11,-241.22 373.93,-246.84"/>
<text text-anchor="middle" x="389.82" y="-206.9" font-family="Times,serif" font-size="14.00">Weight: 1.000000</text>
<text text-anchor="middle" x="389.82" y="-190.1" font-family="Times,serif" font-size="14.00">Innovation: 5</text>
</g>
</g>
</svg>
