<?xml version="1.0" encoding="UTF-8" standalone="no"?>
<!DOCTYPE svg PUBLIC "-//W3C//DTD SVG 1.1//EN"
 "http://www.w3.org/Graphics/SVG/1.1/DTD/svg11.dtd">
<!-- Generated by graphviz version 12.2.0 (0)
 -->
<!-- Title: Genome Pages: 1 -->
<svg width="680pt" height="316pt"
 viewBox="0.00 0.00 680.27 315.81" xmlns="http://www.w3.org/2000/svg" xmlns:xlink="http://www.w3.org/1999/xlink">
<g id="graph0" class="graph" transform="scale(1 1) rotate(0) translate(4 311.81)">
<title>Genome</title>
<polygon fill="white" stroke="none" points="-4,4 -4,-311.81 676.27,-311.81 676.27,4 -4,4"/>
<!-- 0 -->
<g id="node1" class="node">
<title>0</title>
<ellipse fill="none" stroke="black" cx="31.15" cy="-18" rx="31.15" ry="18"/>
<text text-anchor="middle" x="31.15" y="-13.8" font-family="Times,serif" font-size="14.00">ID: 0</text>
</g>
<!-- 3 -->
<g id="node4" class="node">
<title>3</title>
<ellipse fill="none" stroke="black" cx="287.15" cy="-272.66" rx="31.15" ry="31.15"/>
<ellipse fill="none" stroke="black" cx="287.15" cy="-272.66" rx="35.15" ry="35.15"/>
<text text-anchor="middle" x="287.15" y="-268.46" font-family="Times,serif" font-size="14.00">ID: 3</text>
</g>
<!-- 0&#45;&gt;3 -->
<g id="edge1" class="edge">
<title>0&#45;&gt;3</title>
<path fill="none" stroke="black" d="M25.35,-35.94C16.35,-65.54 2.72,-127.4 30.06,-167.9 77.23,-237.81 180.26,-260.63 240.59,-268.06"/>
<polygon fill="black" stroke="black" points="239.86,-271.5 250.19,-269.15 240.65,-264.55 239.86,-271.5"/>
<text text-anchor="middle" x="80.6" y="-140.95" font-family="Times,serif" font-size="14.00">Weight: 1.000000</text>
<text text-anchor="middle" x="80.6" y="-124.15" font-family="Times,serif" font-size="14.00">Innovation: 1</text>
</g>
<!-- 4 -->
<g id="node5" class="node">
<title>4</title>
<ellipse fill="none" stroke="black" cx="171.15" cy="-136.75" rx="31.15" ry="31.15"/>
<text text-anchor="middle" x="171.15" y="-132.55" font-family="Times,serif" font-size="14.00">ID: 4</text>
</g>
<!-- 0&#45;&gt;4 -->
<g id="edge6" class="edge">
<title>0&#45;&gt;4</title>
<path fill="none" stroke="black" d="M33.87,-36.35C37.19,-51.87 44.31,-74.2 59.06,-87.6 79.69,-106.35 93.56,-94.53 119.15,-105.6 124.46,-107.9 129.91,-110.61 135.19,-113.46"/>
<polygon fill="black" stroke="black" points="133.31,-116.42 143.74,-118.28 136.74,-110.32 133.31,-116.42"/>
<text text-anchor="middle" x="109.6" y="-75" font-family="Times,serif" font-size="14.00">Weight: 1.000000</text>
<text text-anchor="middle" x="109.6" y="-58.2" font-family="Times,serif" font-size="14.00">Innovation: 6</text>
</g>
<!-- 1 -->
<g id="node2" class="node">
<title>1</title>
<ellipse fill="none" stroke="black" cx="229.15" cy="-18" rx="31.15" ry="18"/>
<text text-anchor="middle" x="229.15" y="-13.8" font-family="Times,serif" font-size="14.00">ID: 1</text>
</g>
<!-- 1&#45;&gt;3 -->
<g id="edge2" class="edge">
<title>1&#45;&gt;3</title>
<path fill="none" stroke="black" stroke-dasharray="5,2" d="M250.91,-30.88C259.36,-36.68 268.18,-44.48 273.15,-54 301.38,-108.03 299.64,-180.18 294.46,-226.29"/>
<polygon fill="black" stroke="black" points="290.99,-225.86 293.24,-236.21 297.94,-226.72 290.99,-225.86"/>
<text text-anchor="middle" x="348.02" y="-140.95" font-family="Times,serif" font-size="14.00">Weight: 1.000000</text>
<text text-anchor="middle" x="348.02" y="-124.15" font-family="Times,serif" font-size="14.00">Innovation: 2</text>
</g>
<!-- 1&#45;&gt;4 -->
<g id="edge4" class="edge">
<title>1&#45;&gt;4</title>
<path fill="none" stroke="black" d="M202.87,-28.29C191.27,-33.84 178.77,-42.17 172.06,-54 165.16,-66.15 163.44,-81.05 163.92,-94.78"/>
<polygon fill="black" stroke="black" points="160.41,-94.74 164.67,-104.44 167.39,-94.2 160.41,-94.74"/>
<text text-anchor="middle" x="222.6" y="-75" font-family="Times,serif" font-size="14.00">Weight: 1.000000</text>
<text text-anchor="middle" x="222.6" y="-58.2" font-family="Times,serif" font-size="14.00">Innovation: 4</text>
</g>
<!-- 2 -->
<g id="node3" class="node">
<title>2</title>
<ellipse fill="none" stroke="black" cx="440.15" cy="-18" rx="31.15" ry="18"/>
<text text-anchor="middle" x="440.15" y="-13.8" font-family="Times,serif" font-size="14.00">ID: 2</text>
</g>
<!-- 2&#45;&gt;3 -->
<g id="edge3" class="edge">
<title>2&#45;&gt;3</title>
<path fill="none" stroke="black" stroke-dasharray="5,2" d="M438.98,-36.31C436.33,-65.43 427.94,-125.2 402.15,-167.9 382.9,-199.78 350.82,-227.53 325.43,-246.29"/>
<polygon fill="black" stroke="black" points="323.71,-243.22 317.64,-251.9 327.8,-248.9 323.71,-243.22"/>
<text text-anchor="middle" x="477.09" y="-140.95" font-family="Times,serif" font-size="14.00">Weight: 1.000000</text>
<text text-anchor="middle" x="477.09" y="-124.15" font-family="Times,serif" font-size="14.00">Innovation: 3</text>
</g>
<!-- 5 -->
<g id="node6" class="node">
<title>5</title>
<ellipse fill="none" stroke="black" cx="574.15" cy="-136.75" rx="31.15" ry="31.15"/>
<text text-anchor="middle" x="574.15" y="-132.55" font-family="Times,serif" font-size="14.00">ID: 5</text>
</g>
<!-- 2&#45;&gt;5 -->
<g id="edge7" class="edge">
<title>2&#45;&gt;5</title>
<path fill="none" stroke="black" d="M456.85,-33.55C478.16,-52.11 515.45,-84.61 542.28,-107.98"/>
<polygon fill="black" stroke="black" points="539.95,-110.6 549.79,-114.53 544.55,-105.32 539.95,-110.6"/>
<text text-anchor="middle" x="593.72" y="-75" font-family="Times,serif" font-size="14.00">Weight: 218621840.000000</text>
<text text-anchor="middle" x="593.72" y="-58.2" font-family="Times,serif" font-size="14.00">Innovation: 0</text>
</g>
<!-- 4&#45;&gt;3 -->
<g id="edge5" class="edge">
<title>4&#45;&gt;3</title>
<path fill="none" stroke="black" d="M164.1,-167.61C161.9,-184.17 162.2,-204.41 172.06,-219.5 187.39,-243 216.14,-256.04 241.06,-263.2"/>
<polygon fill="black" stroke="black" points="240.16,-266.58 250.72,-265.71 241.92,-259.81 240.16,-266.58"/>
<text text-anchor="middle" x="222.6" y="-206.9" font-family="Times,serif" font-size="14.00">Weight: 1.000000</text>
<text text-anchor="middle" x="222.6" y="-190.1" font-family="Times,serif" font-size="14.00">Innovation: 5</text>
</g>
<!-- 5&#45;&gt;3 -->
<g id="edge8" class="edge">
<title>5&#45;&gt;3</title>
<path fill="none" stroke="black" d="M548.67,-155.31C542.35,-159.53 535.55,-163.95 529.15,-167.9 489.59,-192.33 480.53,-200.37 438.15,-219.5 403.37,-235.21 362.35,-249.1 331.85,-258.59"/>
<polygon fill="black" stroke="black" points="331.1,-255.16 322.57,-261.44 333.16,-261.85 331.1,-255.16"/>
<text text-anchor="middle" x="584.44" y="-206.9" font-family="Times,serif" font-size="14.00">Weight: &#45;1085093632.000000</text>
<text text-anchor="middle" x="584.44" y="-190.1" font-family="Times,serif" font-size="14.00">Innovation: 0</text>
</g>
</g>
</svg>
