<?xml version="1.0" encoding="UTF-8" standalone="no"?>
<!DOCTYPE svg PUBLIC "-//W3C//DTD SVG 1.1//EN"
 "http://www.w3.org/Graphics/SVG/1.1/DTD/svg11.dtd">
<!-- Generated by graphviz version 12.2.0 (0)
 -->
<!-- Title: Genome Pages: 1 -->
<svg width="476pt" height="316pt"
 viewBox="0.00 0.00 476.30 315.81" xmlns="http://www.w3.org/2000/svg" xmlns:xlink="http://www.w3.org/1999/xlink">
<g id="graph0" class="graph" transform="scale(1 1) rotate(0) translate(4 311.81)">
<title>Genome</title>
<polygon fill="white" stroke="none" points="-4,4 -4,-311.81 472.3,-311.81 472.3,4 -4,4"/>
<!-- 0 -->
<g id="node1" class="node">
<title>0</title>
<ellipse fill="none" stroke="black" cx="31.15" cy="-18" rx="31.15" ry="18"/>
<text text-anchor="middle" x="31.15" y="-13.8" font-family="Times,serif" font-size="14.00">ID: 0</text>
</g>
<!-- 3 -->
<g id="node4" class="node">
<title>3</title>
<ellipse fill="none" stroke="black" cx="229.15" cy="-272.66" rx="31.15" ry="31.15"/>
<ellipse fill="none" stroke="black" cx="229.15" cy="-272.66" rx="35.15" ry="35.15"/>
<text text-anchor="middle" x="229.15" y="-268.46" font-family="Times,serif" font-size="14.00">ID: 3</text>
</g>
<!-- 0&#45;&gt;3 -->
<g id="edge1" class="edge">
<title>0&#45;&gt;3</title>
<path fill="none" stroke="black" d="M25.63,-36.14C17.26,-65.52 4.85,-126.35 30.06,-167.9 63.27,-222.67 135.88,-249.88 183.62,-262.34"/>
<polygon fill="black" stroke="black" points="182.57,-265.68 193.12,-264.69 184.26,-258.89 182.57,-265.68"/>
<text text-anchor="middle" x="80.6" y="-140.95" font-family="Times,serif" font-size="14.00">Weight: 1.000000</text>
<text text-anchor="middle" x="80.6" y="-124.15" font-family="Times,serif" font-size="14.00">Innovation: 1</text>
</g>
<!-- 4 -->
<g id="node5" class="node">
<title>4</title>
<ellipse fill="none" stroke="black" cx="171.15" cy="-136.75" rx="31.15" ry="31.15"/>
<text text-anchor="middle" x="171.15" y="-132.55" font-family="Times,serif" font-size="14.00">ID: 4</text>
</g>
<!-- 0&#45;&gt;4 -->
<g id="edge6" class="edge">
<title>0&#45;&gt;4</title>
<path fill="none" stroke="black" d="M33.87,-36.35C37.19,-51.87 44.31,-74.2 59.06,-87.6 79.69,-106.35 93.56,-94.53 119.15,-105.6 124.46,-107.9 129.91,-110.61 135.19,-113.46"/>
<polygon fill="black" stroke="black" points="133.31,-116.42 143.74,-118.28 136.74,-110.32 133.31,-116.42"/>
<text text-anchor="middle" x="109.6" y="-75" font-family="Times,serif" font-size="14.00">Weight: 1.000000</text>
<text text-anchor="middle" x="109.6" y="-58.2" font-family="Times,serif" font-size="14.00">Innovation: 6</text>
</g>
<!-- 1 -->
<g id="node2" class="node">
<title>1</title>
<ellipse fill="none" stroke="black" cx="229.15" cy="-18" rx="31.15" ry="18"/>
<text text-anchor="middle" x="229.15" y="-13.8" font-family="Times,serif" font-size="14.00">ID: 1</text>
</g>
<!-- 1&#45;&gt;3 -->
<g id="edge2" class="edge">
<title>1&#45;&gt;3</title>
<path fill="none" stroke="black" stroke-dasharray="5,2" d="M251.21,-30.73C259.71,-36.51 268.49,-44.33 273.15,-54 305.11,-120.25 298.4,-150.42 273.15,-219.5 270.56,-226.61 266.52,-233.41 261.92,-239.62"/>
<polygon fill="black" stroke="black" points="259.44,-237.12 255.84,-247.09 264.87,-241.54 259.44,-237.12"/>
<text text-anchor="middle" x="345.22" y="-140.95" font-family="Times,serif" font-size="14.00">Weight: 1.000000</text>
<text text-anchor="middle" x="345.22" y="-124.15" font-family="Times,serif" font-size="14.00">Innovation: 2</text>
</g>
<!-- 1&#45;&gt;4 -->
<g id="edge4" class="edge">
<title>1&#45;&gt;4</title>
<path fill="none" stroke="black" d="M202.87,-28.29C191.27,-33.84 178.77,-42.17 172.06,-54 165.16,-66.15 163.44,-81.05 163.92,-94.78"/>
<polygon fill="black" stroke="black" points="160.41,-94.74 164.67,-104.44 167.39,-94.2 160.41,-94.74"/>
<text text-anchor="middle" x="222.6" y="-75" font-family="Times,serif" font-size="14.00">Weight: 1.000000</text>
<text text-anchor="middle" x="222.6" y="-58.2" font-family="Times,serif" font-size="14.00">Innovation: 4</text>
</g>
<!-- 2 -->
<g id="node3" class="node">
<title>2</title>
<ellipse fill="none" stroke="black" cx="437.15" cy="-136.75" rx="31.15" ry="18"/>
<text text-anchor="middle" x="437.15" y="-132.55" font-family="Times,serif" font-size="14.00">ID: 2</text>
</g>
<!-- 2&#45;&gt;3 -->
<g id="edge3" class="edge">
<title>2&#45;&gt;3</title>
<path fill="none" stroke="black" d="M417.5,-151.06C409.65,-156.35 400.5,-162.45 392.15,-167.9 349.98,-195.45 301.19,-226.38 268.06,-247.25"/>
<polygon fill="black" stroke="black" points="266.61,-244.03 260.01,-252.31 270.34,-249.95 266.61,-244.03"/>
<text text-anchor="middle" x="411.68" y="-206.9" font-family="Times,serif" font-size="14.00">Weight: 1.000000</text>
<text text-anchor="middle" x="411.68" y="-190.1" font-family="Times,serif" font-size="14.00">Innovation: 3</text>
</g>
<!-- 4&#45;&gt;3 -->
<g id="edge5" class="edge">
<title>4&#45;&gt;3</title>
<path fill="none" stroke="black" d="M165.89,-167.73C164.43,-183.76 164.87,-203.44 172.06,-219.5 176.41,-229.22 183.54,-237.93 191.32,-245.31"/>
<polygon fill="black" stroke="black" points="188.92,-247.87 198.76,-251.79 193.52,-242.59 188.92,-247.87"/>
<text text-anchor="middle" x="222.6" y="-206.9" font-family="Times,serif" font-size="14.00">Weight: 1.000000</text>
<text text-anchor="middle" x="222.6" y="-190.1" font-family="Times,serif" font-size="14.00">Innovation: 5</text>
</g>
</g>
</svg>
